# xmcd
#
# Track frame offsets:
#	150
#	14925
#	25950
#	37500
#	49425
#	64050
#	79200
#	92625
#	106275
#	122025
#	137250
#	151050
#	164550
#	178350
#	193125
#	209325
#	223425
#	238200
#	253425
#	267300
#
# Disc length: 3755 seconds
#
# Revision: 0
# Processed by: cddbd v1.5.1PL0 Copyright (c) Steve Scherf et al.
# Submitted via: dBpowerAMP V4.0
#
DISCID=320ea914
DTITLE=ΧΡΥΣΗ ΔΙΣΚΟΘΗΚΗ 1967 -  ΧΡΥΣΗ ΔΙΣΚΟΘΗΚΗ 1967
DYEAR=1900
DGENRE=
TTITLE0=ΟΝΕΙΡΟ ΑΠΑΤΗΛΟ - Στ. Κόκοτας
TTITLE1=Σ' ΕΒΛΕΠΑ ΣΤΑ ΜΑΤΙΑ - Β.Μοσχολιού
TTITLE2=ΘΑ ΚΛΕΙΣΩ ΤΑ ΜΑΤΙΑ - Γρ.Μπιθικώτσης
TTITLE3=ΕΚΛΑΨΑ ΧΘΕΣ - Μαρινέλλα
TTITLE4=ΒΡΕΧΕΙ Ο ΘΕΟΣ - Στ. Κόκοτας
TTITLE5=ΣΤΟΥ ΠΡΟΦΗΤΗ ΗΛΙΑ - Στ. Κόκοτας
TTITLE6=ΔΕΝ ΞΕΡΩ ΠΟΣΟ Σ' ΑΓΑΠΩ - Β.Μοσχολιού
TTITLE7=ΣΤΟ ΛΑΥΡΙΟ - Γρ.Μπιθικώτσης
TTITLE8=ΠΟΥ ΝΑΒΡΩ ΤΑΧΥΔΡΟΜΟ - Β.Μοσχολιού
TTITLE9=ΠΗΡΕΣ ΤΟ ΜΕΓΑΛΟ ΔΡΟΜΟ - Στ. Κόκοτας
TTITLE10=ΡΟΛΟΪ ΚΟΜΠΟΛΟΪ - Γρ.Μπιθικώτσης
TTITLE11=Η ΠΙΟ ΜΕΓΑΛΗ ΩΡΑ - Γιώτα Λύδια
TTITLE12=ΤΩΡΑ ΚΛΑΙΣ ΓΙΑΤΙ ΚΛΑΙΣ - Γιώργος Χατζηαντωνίου
TTITLE13=ΣΤΟΥ ΧΑΡΟΚΟΠΟΥ ΚΑΙ ΣΤΗΝ ΚΑΛΛΙΘΕΑ - Δημήτρης Ευσταθίου, Λ.Διαμάντη and Μ.Παπαδάκης
TTITLE14=ΕΦΥΓΕ ΕΦΥΓΕ - Στ. Καζαντζίδης and Λ.Διαμάντη
TTITLE15=ΠΕΤΡΑΔΑΚΙ ΠΕΤΡΑΔΑΚΙ - Μιχ. Μενιδιάτης
TTITLE16=ΙΣΩΣ - Μπάμπης Τσετίνης and Λ.Διαμάντη
TTITLE17=ΚΑΛΗ ΤΥΧΗ Μ.Αγγελόπουλος
TTITLE18=ΘΑ ΤΑ ΚΑΨΩ ΤΑ ΛΕΦΤΑ ΜΟΥ - Μάνος Παπαδάκης and Π.Πάνου
TTITLE19=ΤΩΡΑ ΓΕΛΑΣ ΜΑ ΑΥΡΙΟ ΘΑ ΚΛΑΙΣ - Στ. Καζαντζίδης and Λ.Διαμάντη
EXTD=
EXTT0=
EXTT1=
EXTT2=
EXTT3=
EXTT4=
EXTT5=
EXTT6=
EXTT7=
EXTT8=
EXTT9=
EXTT10=
EXTT11=
EXTT12=
EXTT13=
EXTT14=
EXTT15=
EXTT16=
EXTT17=
EXTT18=
EXTT19=
PLAYORDER=
